PathFileType	4	(X/Y/Z)	c:/Users/goper/Files/vsCode/490R/osim_files/A03/A03_SSWS_04.trc
DataRate	CameraRate	NumFrames	NumMarkers	Units                	OrigDataRate	OrigDataStartFrame	OrigNumFrames
250.00	250.00	7	36	mm	250.0	1376	2750
                Frame#	Time	LPSIS			LASIS			LTH1			LTH2			LTH3			LTH4			LLFE			LMFE			LSH1			LSH2			LSH3			LSH4			LLMAL			LMMAL			LCAL			LMTP5			LTOE			LMTP1			RPSIS			RASIS			RTH1			RTH2			RTH3			RTH4			RLFE			RMFE			RSH1			RSH2			RSH3			RSH4			RLMAL			RMMAL			RCAL			RMTP1			RTOE			RMTP5		
		X1	Y1	Z1	X2	Y2	Z2	X3	Y3	Z3	X4	Y4	Z4	X5	Y5	Z5	X6	Y6	Z6	X7	Y7	Z7	X8	Y8	Z8	X9	Y9	Z9	X10	Y10	Z10	X11	Y11	Z11	X12	Y12	Z12	X13	Y13	Z13	X14	Y14	Z14	X15	Y15	Z15	X16	Y16	Z16	X17	Y17	Z17	X18	Y18	Z18	X19	Y19	Z19	X20	Y20	Z20	X21	Y21	Z21	X22	Y22	Z22	X23	Y23	Z23	X24	Y24	Z24	X25	Y25	Z25	X26	Y26	Z26	X27	Y27	Z27	X28	Y28	Z28	X29	Y29	Z29	X30	Y30	Z30	X31	Y31	Z31	X32	Y32	Z32	X33	Y33	Z33	X34	Y34	Z34	X35	Y35	Z35	X36	Y36	Z36

1376	5.50000	-637.48840	1051.02209	376.91702	-868.23657	961.12701	513.02118	-714.44672	629.74457	537.62634	-712.86243	587.64917	535.70508	-773.72650	618.28894	522.87018	-760.25836	575.51727	521.54260	-680.81085	543.04034	525.97742	-702.40973	530.93085	372.27527	-617.94244	467.46786	523.20398	-609.41119	419.98355	521.48761	-677.32465	448.26523	519.18164	-658.40033	404.85645	513.66925	-534.47430	101.84048	485.94504	-546.54535	107.76578	388.07425	-464.91318	90.51450	431.55225	-681.75214	39.62704	496.71448	-713.22626	68.79836	428.91583	-682.44781	49.17719	383.31683	-640.66815	1047.05115	296.72244	-893.75287	971.72180	212.20615	-913.72693	609.04187	166.19376	-931.83844	568.85657	174.54747	-971.73920	629.10938	168.52803	-982.34705	586.31506	176.71567	-966.24536	547.50714	191.53781	-999.74756	561.86237	309.19571	-938.76434	464.48734	188.46013	-954.12494	427.36557	174.46033	-997.03015	485.51419	179.43309	-1006.90070	440.07202	167.35971	-1118.93213	150.04088	193.33096	-1174.70325	165.91115	269.59671	-1105.37183	86.68178	257.77258	-1310.45093	167.61363	254.23755	-1310.33228	197.58461	198.93915	-1290.68311	142.05748	140.99141
1377	5.50400	-642.60260	1049.96582	376.19000	-871.90485	959.90002	512.00452	-718.23486	629.27771	537.62787	-716.40857	587.09833	535.81305	-777.47241	617.51721	523.09174	-763.98193	574.87726	521.76794	-684.37958	542.51611	526.08026	-705.85376	530.29144	372.37943	-621.02783	467.35876	523.31555	-612.15991	419.91791	521.62000	-680.21899	447.78003	519.23236	-660.26178	405.18069	513.78894	-535.89563	103.24660	487.24075	-546.88214	108.09541	388.08484	-465.25803	91.21290	431.74539	-681.98401	39.64863	496.79196	-713.44916	68.58054	428.95563	-682.54315	49.06306	383.32925	-645.94745	1045.88135	295.99814	-899.37427	970.80127	212.07526	-919.49548	608.40955	166.23273	-937.80750	568.25330	174.39305	-977.41461	628.65845	168.92178	-988.18048	585.96558	177.39647	-972.29614	546.71417	191.83890	-1004.92218	560.87305	308.89859	-944.53259	463.33020	188.70567	-959.88873	426.13568	174.81839	-1002.75989	484.35461	179.40996	-1012.69232	438.87823	167.56573	-1124.82849	149.03169	194.52896	-1181.27832	165.37000	270.32022	-1112.96216	85.31562	259.42352	-1316.86902	167.60974	253.56334	-1315.98669	197.32343	198.13246	-1295.87329	141.40807	140.43587
1378	5.50800	-647.73572	1048.95337	375.50934	-876.67523	958.91388	511.93161	-722.00867	628.73657	537.67615	-720.07263	586.55853	535.92419	-781.26862	616.73169	523.32300	-767.52258	574.17657	522.06879	-688.04419	541.94220	526.15955	-709.33826	529.63751	372.46484	-624.11835	467.30453	523.41583	-614.91870	419.89645	521.70551	-683.21552	447.34189	519.31049	-663.06171	404.79095	513.98511	-536.28680	103.66492	487.41870	-547.25220	108.40464	388.08752	-465.65689	91.91891	431.98740	-682.14117	39.56805	496.78516	-713.77435	68.28108	428.88956	-682.68732	48.90885	383.38629	-651.15417	1044.79004	295.36502	-904.83081	969.93268	211.95212	-925.61884	607.81317	166.14790	-943.91663	567.72455	174.36501	-983.37695	628.30823	169.23746	-994.25586	585.55658	177.19849	-980.32275	546.58398	192.10936	-1010.90033	560.15979	309.07416	-950.41711	462.38193	188.87949	-965.81238	425.08820	175.15565	-1008.68018	483.30292	179.45181	-1018.49371	437.75217	167.74518	-1130.15601	147.80582	195.66487	-1187.28711	164.64500	270.96179	-1118.86707	84.44550	261.19525	-1322.63086	167.02043	253.03445	-1321.19727	196.34175	197.35966	-1300.62927	140.08151	140.16124
1379	5.51200	-652.90363	1047.86853	374.84412	-881.36615	957.90619	511.76755	-725.81500	628.18597	537.73572	-723.70483	586.06079	536.11145	-785.04279	615.91229	523.58124	-771.25201	573.48529	522.35767	-691.72180	541.42548	526.25568	-712.91882	528.95465	372.55368	-627.29059	467.19028	523.55939	-617.70746	419.84583	521.88477	-686.17255	446.84042	519.42303	-665.90356	404.36722	514.17291	-536.69513	104.07480	487.69446	-547.60944	108.79487	388.13831	-466.02570	92.69753	432.26981	-682.22333	39.43651	496.77164	-713.74884	68.26983	428.57883	-682.75433	48.90333	383.29504	-656.50775	1043.63489	294.69452	-910.48126	969.21362	211.78864	-931.78925	607.33447	166.04404	-950.14325	567.27631	174.25848	-989.49805	627.93927	169.42578	-1001.10962	585.60291	176.87585	-983.79163	544.96533	191.32840	-1017.03296	559.52155	309.14246	-956.47144	461.54639	189.00909	-971.73572	424.22339	175.40526	-1014.72455	482.31680	179.49298	-1024.49927	436.73965	167.89830	-1135.08203	146.41359	196.75290	-1192.71326	163.70491	271.74219	-1124.03760	83.39835	262.91501	-1327.74634	165.87413	252.72217	-1326.05334	194.65553	196.79578	-1304.96436	137.96841	140.15700
1380	5.51600	-657.99927	1046.88721	374.27380	-886.03937	956.91510	511.64014	-729.66760	627.68933	537.80353	-727.44818	585.49023	536.30518	-788.89825	615.17084	523.85315	-774.82751	572.75861	522.69482	-695.45709	540.83997	526.41577	-716.44855	528.30536	372.66357	-630.52673	467.05658	523.78137	-620.84271	419.51459	522.40479	-689.20093	446.32144	519.51880	-669.11285	404.12277	514.92035	-537.07379	104.51788	487.87531	-548.03766	109.25852	388.24472	-466.45309	93.58804	432.51385	-682.28137	39.33516	496.79965	-713.88263	68.10514	428.57980	-682.86542	48.81600	383.28888	-661.83014	1042.54272	294.07257	-916.02075	968.55774	211.62384	-937.99591	607.03436	166.13326	-956.68311	566.87317	174.12512	-995.77368	627.64337	169.50293	-1007.53595	585.29327	176.97665	-989.78540	544.05188	191.10905	-1023.10840	558.87793	309.05719	-962.50250	460.85846	189.11293	-977.61755	423.46985	175.56631	-1020.82141	481.40170	179.54597	-1030.11121	435.66107	167.80473	-1139.41809	144.87601	197.72061	-1197.45581	162.43697	272.53189	-1128.25073	82.27396	264.43228	-1332.15845	164.22238	252.75545	-1330.40686	192.28471	196.47751	-1308.94031	135.19160	140.41606
1381	5.52000	-663.07709	1045.87170	373.73593	-890.72308	955.98480	511.43451	-733.56091	627.16699	537.89319	-731.19885	584.93799	536.50934	-792.75250	614.41278	524.15564	-778.63300	572.04816	523.04651	-699.24878	540.24866	526.60083	-720.02570	527.61237	372.84845	-633.79077	466.96646	523.97247	-623.77777	419.49997	522.60535	-692.25708	445.82123	519.70367	-672.35016	404.07169	515.54950	-537.52545	105.01323	488.05643	-548.51642	109.72659	388.25540	-466.89731	94.54197	432.70084	-682.34448	39.22805	496.78674	-713.39661	67.47735	428.36795	-683.00330	48.71943	383.25806	-667.20422	1041.49377	293.43478	-921.66125	967.95331	211.44804	-944.50604	606.57764	165.98897	-963.19733	566.45453	174.03444	-1002.28717	627.27490	169.53369	-1014.04492	584.94946	177.03571	-995.85162	543.14600	190.77338	-1029.47974	558.35779	308.96045	-968.62140	460.25748	189.17522	-983.56262	422.78455	175.67374	-1027.00720	480.49329	179.59146	-1036.39172	434.80319	168.18515	-1143.96533	142.83717	199.21733	-1203.01465	161.50597	274.07861	-1131.82410	81.03856	265.89145	-1336.16687	161.76201	252.96365	-1334.42285	189.28996	196.44064	-1312.38928	131.91533	140.87546
1382	5.52400	-668.24664	1044.88721	373.16522	-896.45544	955.50269	511.99506	-737.57770	626.64612	538.06537	-735.06470	584.42047	536.78430	-796.72406	613.67419	524.46704	-782.41986	571.33612	523.42950	-703.11035	539.66479	526.84528	-723.76056	526.92004	373.11957	-637.16852	466.90848	524.62457	-626.77405	419.46631	522.84436	-695.47369	445.28894	519.87048	-675.74432	403.90732	516.20227	-537.96729	105.58533	488.20319	-549.01263	110.25993	388.25586	-467.41565	95.54148	432.86108	-682.43250	39.17335	496.77451	-713.21234	67.20671	428.70859	-683.16162	48.60949	383.23621	-672.59705	1040.45886	292.80688	-927.27380	967.46387	211.22156	-951.32361	605.93103	165.47743	-969.80597	566.00793	173.87634	-1008.83557	626.92371	169.47043	-1020.61975	584.59814	177.06796	-1002.14142	542.29523	190.44867	-1035.82739	557.80292	308.80444	-974.64172	459.73840	189.16902	-989.39594	422.13428	175.70154	-1033.18726	479.57761	179.58707	-1042.24976	433.79178	168.24925	-1146.87634	141.03590	199.98706	-1206.41602	159.58209	274.99969	-1134.66455	79.62616	267.19003	-1339.61902	158.67647	253.44208	-1338.12878	185.75995	196.79362	-1315.55750	128.21141	141.67627
